<mxfile host="app.diagrams.net" modified="2023-10-27T19:51:44.912Z" agent="Mozilla/5.0 (Windows NT 10.0; Win64; x64) AppleWebKit/537.36 (KHTML, like Gecko) Chrome/118.0.0.0 Safari/537.36 Edg/118.0.2088.69" version="21.8.2" etag="Av-1_Vo5gz3r_aO8MLX_" type="github">
  <diagram name="Page-1" id="S3i4wdVTXy7wotJT1Z3U">
    <mxGraphModel>
      <root>
        <mxCell id="0" />
        <mxCell id="1" parent="0" />
      </root>
    </mxGraphModel>
  </diagram>
</mxfile>
